<?xml version="1.0" encoding="UTF-8"?>
<svg version="1.1" xmlns="http://www.w3.org/2000/svg" width="46" height="46">
<path d="M0 0 C2.475 0.495 2.475 0.495 5 1 C4.67 2.32 4.34 3.64 4 5 C3.360625 5.103125 2.72125 5.20625 2.0625 5.3125 C1.0415625 5.6528125 1.0415625 5.6528125 0 6 C-0.33 6.99 -0.66 7.98 -1 9 C1.475 9.495 1.475 9.495 4 10 C3.67 10.66 3.34 11.32 3 12 C1.35 12.33 -0.3 12.66 -2 13 C-2.66 18.28 -3.32 23.56 -4 29 C-2.68 29.33 -1.36 29.66 0 30 C0.29003906 28.95199219 0.29003906 28.95199219 0.5859375 27.8828125 C0.97652344 26.51769531 0.97652344 26.51769531 1.375 25.125 C1.63023438 24.22007813 1.88546875 23.31515625 2.1484375 22.3828125 C3 20 3 20 5 18 C5.99 18 6.98 18 8 18 C8.66 16.02 9.32 14.04 10 12 C13.63 12.66 17.26 13.32 21 14 C21.99232565 18.96162825 22.10448832 20.5905959 20 25 C17.875 25.875 17.875 25.875 16 26 C16.66 26.99 17.32 27.98 18 29 C18.25760279 31.69452521 18.08900053 34.28548375 18 37 C16.68 37.66 15.36 38.32 14 39 C14.66 40.32 15.32 41.64 16 43 C7.89319213 42.65355522 7.89319213 42.65355522 4.4375 40.125 C3 38 3 38 3 35 C-0.63 34.67 -4.26 34.34 -8 34 C-7.01 34.66 -6.02 35.32 -5 36 C-5 36.99 -5 37.98 -5 39 C-17.14973105 36.82221802 -17.14973105 36.82221802 -19.875 33.125 C-21 30 -21 30 -20.4375 27.25 C-19 25 -19 25 -16 23 C-14.7625 22.938125 -14.7625 22.938125 -13.5 22.875 C-10.88036024 22.27390818 -10.88036024 22.27390818 -10.01171875 20.16015625 C-9.25614905 18.12262469 -8.58617764 16.09212994 -8 14 C-8.680625 13.4225 -9.36125 12.845 -10.0625 12.25 C-11.0215625 11.13625 -11.0215625 11.13625 -12 10 C-11.75 7.75 -11.75 7.75 -11 6 C-9.39125 5.9071875 -9.39125 5.9071875 -7.75 5.8125 C-3.86468039 5.33854041 -3.86468039 5.33854041 -1.5625 2.4375 C-1.046875 1.633125 -0.53125 0.82875 0 0 Z " fill="#C2445E" transform="translate(22,3)"/>
<path d="M0 0 C2.475 0.495 2.475 0.495 5 1 C4.67 2.32 4.34 3.64 4 5 C3.360625 5.103125 2.72125 5.20625 2.0625 5.3125 C1.0415625 5.6528125 1.0415625 5.6528125 0 6 C-0.33 6.99 -0.66 7.98 -1 9 C1.475 9.495 1.475 9.495 4 10 C3.67 10.66 3.34 11.32 3 12 C1.35 12.33 -0.3 12.66 -2 13 C-2.66 18.28 -3.32 23.56 -4 29 C-2.35 29.66 -0.7 30.32 1 31 C1 32.32 1 33.64 1 35 C-1.97 34.67 -4.94 34.34 -8 34 C-7.01 34.66 -6.02 35.32 -5 36 C-5 36.99 -5 37.98 -5 39 C-17.14973105 36.82221802 -17.14973105 36.82221802 -19.875 33.125 C-21 30 -21 30 -20.4375 27.25 C-19 25 -19 25 -16 23 C-14.7625 22.938125 -14.7625 22.938125 -13.5 22.875 C-10.88036024 22.27390818 -10.88036024 22.27390818 -10.01171875 20.16015625 C-9.25614905 18.12262469 -8.58617764 16.09212994 -8 14 C-8.680625 13.4225 -9.36125 12.845 -10.0625 12.25 C-11.0215625 11.13625 -11.0215625 11.13625 -12 10 C-11.75 7.75 -11.75 7.75 -11 6 C-9.39125 5.9071875 -9.39125 5.9071875 -7.75 5.8125 C-3.86468039 5.33854041 -3.86468039 5.33854041 -1.5625 2.4375 C-1.046875 1.633125 -0.53125 0.82875 0 0 Z " fill="#D22169" transform="translate(22,3)"/>
<path d="M0 0 C3.63 0.66 7.26 1.32 11 2 C12.0036454 7.01822701 11.79132273 8.46900722 10 13 C4.2190275 12.36934845 -1.3443706 11.34844868 -7 10 C-6.34 8.68 -5.68 7.36 -5 6 C-4.01 6 -3.02 6 -2 6 C-1.34 4.02 -0.68 2.04 0 0 Z " fill="#A87C6B" transform="translate(32,15)"/>
<path d="M0 0 C2.64 0.66 5.28 1.32 8 2 C8.125 4.875 8.125 4.875 8 8 C7.34 8.66 6.68 9.32 6 10 C2.375 9.625 2.375 9.625 -1 9 C-0.67 6.03 -0.34 3.06 0 0 Z " fill="#CAA089" transform="translate(32,15)"/>
<path d="M0 0 C1.65 0.33 3.3 0.66 5 1 C4.67 2.32 4.34 3.64 4 5 C3.360625 5.103125 2.72125 5.20625 2.0625 5.3125 C1.381875 5.539375 0.70125 5.76625 0 6 C-0.33 6.99 -0.66 7.98 -1 9 C0.65 9.33 2.3 9.66 4 10 C3.67 10.66 3.34 11.32 3 12 C0.35139573 12.59355614 -2.29197322 12.74209269 -5 13 C-6 11 -6 11 -5.3125 8.75 C-3.81473787 5.61183173 -1.98749842 2.84874773 0 0 Z " fill="#723D69" transform="translate(22,3)"/>
<path d="M0 0 C3.3 0.33 6.6 0.66 10 1 C10.33 1.99 10.66 2.98 11 4 C11.99 4.33 12.98 4.66 14 5 C14 5.99 14 6.98 14 8 C12.03648722 7.63071549 10.0791246 7.22861359 8.125 6.8125 C7.03445312 6.59207031 5.94390625 6.37164062 4.8203125 6.14453125 C2 5 2 5 0.6171875 2.38671875 C0.41351563 1.59910156 0.20984375 0.81148437 0 0 Z " fill="#3F5168" transform="translate(3,34)"/>
<path d="M0 0 C3.63 0.66 7.26 1.32 11 2 C11.66 3.98 12.32 5.96 13 8 C4.89319213 7.65355522 4.89319213 7.65355522 1.4375 5.125 C0 3 0 3 0 0 Z " fill="#4C576A" transform="translate(25,38)"/>
<path d="M0 0 C0.33 2.31 0.66 4.62 1 7 C-1.97 6.67 -4.94 6.34 -8 6 C-8 4.68 -8 3.36 -8 2 C-4.77208445 -0.1519437 -3.71599191 -0.20086443 0 0 Z " fill="#D11E69" transform="translate(11,26)"/>
<path d="M0 0 C2.97 0.33 5.94 0.66 9 1 C9 2.65 9 4.3 9 6 C5.7 5.67 2.4 5.34 -1 5 C-0.67 3.35 -0.34 1.7 0 0 Z " fill="#D12069" transform="translate(25,33)"/>
<path d="M0 0 C5.86448454 0.2555331 9.65757571 0.65757571 14 5 C13.67 5.66 13.34 6.32 13 7 C11.948125 6.525625 10.89625 6.05125 9.8125 5.5625 C6.89824149 4.30676259 4.15253086 3.47765619 1 3 C1 3.66 1 4.32 1 5 C0.34 5 -0.32 5 -1 5 C-0.67 3.35 -0.34 1.7 0 0 Z " fill="#CE2169" transform="translate(25,25)"/>
<path d="M0 0 C0.928125 0.20625 1.85625 0.4125 2.8125 0.625 C2.1875 2.5625 2.1875 2.5625 0.8125 4.625 C-2.3125 5.375 -2.3125 5.375 -5.1875 5.625 C-5.5175 4.305 -5.8475 2.985 -6.1875 1.625 C-3.1875 -0.375 -3.1875 -0.375 0 0 Z " fill="#F18571" transform="translate(16.1875,8.375)"/>
<path d="M0 0 C1.1171875 3.71875 1.1171875 3.71875 0.0625 6.25 C-1.38134296 9.9870053 -1.13534184 13.00741565 -1 17 C-1.66 17 -2.32 17 -3 17 C-4.50717296 10.09212392 -3.3284547 6.17121215 0 0 Z " fill="#ED5D72" transform="translate(15,16)"/>
<path d="M0 0 C1.53202706 0.25195908 3.05257128 0.57596777 4.5625 0.9375 C5.38878906 1.13214844 6.21507812 1.32679687 7.06640625 1.52734375 C8.02353516 1.76130859 8.02353516 1.76130859 9 2 C9 2.66 9 3.32 9 4 C6.36 3.67 3.72 3.34 1 3 C0.67 4.65 0.34 6.3 0 8 C-0.33 8 -0.66 8 -1 8 C-1.04241723 5.66705225 -1.04092937 3.33297433 -1 1 C-0.67 0.67 -0.34 0.34 0 0 Z " fill="#EA5970" transform="translate(24,30)"/>
<path d="M0 0 C1.8141927 0.28094582 3.62635001 0.57506433 5.4375 0.875 C6.95150391 1.11863281 6.95150391 1.11863281 8.49609375 1.3671875 C9.32238281 1.57601562 10.14867187 1.78484375 11 2 C11.33 2.66 11.66 3.32 12 4 C8.37 3.67 4.74 3.34 1 3 C0.67 2.01 0.34 1.02 0 0 Z " fill="#BB415F" transform="translate(1,31)"/>
<path d="M0 0 C1.32 0.33 2.64 0.66 4 1 C4 1.99 4 2.98 4 4 C2.02 4 0.04 4 -2 4 C-1.34 2.68 -0.68 1.36 0 0 Z " fill="#394B64" transform="translate(27,21)"/>
<path d="M0 0 C2.475 0.495 2.475 0.495 5 1 C4.67 2.32 4.34 3.64 4 5 C2.68 4.67 1.36 4.34 0 4 C0 2.68 0 1.36 0 0 Z " fill="#CD1E69" transform="translate(22,3)"/>
<path d="M0 0 C0.763125 0.20625 1.52625 0.4125 2.3125 0.625 C2.3125 1.615 2.3125 2.605 2.3125 3.625 C-0.3275 2.965 -2.9675 2.305 -5.6875 1.625 C-2.6875 -0.375 -2.6875 -0.375 0 0 Z " fill="#707173" transform="translate(14.6875,38.375)"/>
<path d="M0 0 C1.32 0 2.64 0 4 0 C4 0.99 4 1.98 4 3 C2.68 2.67 1.36 2.34 0 2 C0 1.34 0 0.68 0 0 Z " fill="#727474" transform="translate(18,40)"/>
</svg>
