<svg width="12" height="12" viewBox="0 0 12 12" fill="none" xmlns="http://www.w3.org/2000/svg">
<path fill-rule="evenodd" clip-rule="evenodd" d="M6.00014 8.74134L5.21801 11.0625C4.90086 12.0022 3.79306 12.3255 3.1377 11.6144C2.99868 11.6501 2.85361 11.6544 2.71276 11.627C2.57192 11.5996 2.43876 11.5411 2.32273 11.4558C2.2067 11.3704 2.11065 11.2603 2.04138 11.1331C1.97212 11.006 1.93134 10.865 1.92195 10.7201C1.05246 10.3087 1.01215 9.1418 1.79876 8.54632L3.73796 7.07691L1.31586 7.04244C0.334388 7.02793 -0.310669 6.06056 0.153862 5.2102C0.0775558 5.08727 0.0288505 4.94887 0.0111882 4.80479C-0.00647411 4.66071 0.0073378 4.51445 0.0516477 4.37637C0.0959576 4.23828 0.169684 4.11173 0.267616 4.00567C0.365548 3.8996 0.485294 3.81661 0.618393 3.76256C0.736205 2.79791 1.81981 2.39926 2.6221 2.97207L4.60162 4.38524L3.88489 2.04234C3.59686 1.09584 4.2997 0.168835 5.24802 0.357501C5.33988 0.245912 5.45485 0.156134 5.58478 0.0945231C5.71472 0.0329126 5.85644 0.000976563 5.99992 0.000976562C6.1434 0.000976563 6.28512 0.0329126 6.41506 0.0945231C6.54499 0.156134 6.65996 0.245912 6.75181 0.357501C7.69924 0.168835 8.40254 1.09584 8.11495 2.04234L7.39822 4.38524L9.37774 2.97161C10.18 2.39881 11.2632 2.79746 11.3814 3.76256C11.5146 3.81649 11.6344 3.89941 11.7324 4.00542C11.8303 4.11143 11.9041 4.23796 11.9484 4.37603C11.9927 4.51411 12.0065 4.66036 11.9888 4.80443C11.9711 4.9485 11.9224 5.08688 11.846 5.20975C12.3105 6.06056 11.6668 7.02747 10.684 7.04199L8.26232 7.07691L10.2015 8.54587C10.9872 9.14089 10.9483 10.3083 10.0779 10.7196C10.0685 10.8645 10.0277 11.0055 9.95845 11.1327C9.88919 11.2598 9.79314 11.37 9.67711 11.4553C9.56108 11.5407 9.42792 11.5992 9.28708 11.6266C9.14623 11.654 9.00115 11.6497 8.86214 11.614C8.20767 12.3246 7.09898 12.0022 6.78183 11.0616L6.00014 8.74134Z" fill="#D21E6A"/>
<path fill-rule="evenodd" clip-rule="evenodd" d="M6.00024 8.74076V0H6.0428C6.17906 0.00593849 6.31259 0.040682 6.43479 0.101996C6.55699 0.163311 6.66517 0.249839 6.75236 0.356016C7.68591 0.174607 8.40532 1.08891 8.11415 2.04086L7.39742 4.38376L9.37694 2.97013C10.1792 2.39733 11.2619 2.79597 11.3807 3.76107C11.5138 3.81501 11.6336 3.89792 11.7316 4.00393C11.8295 4.10995 11.9033 4.23647 11.9476 4.37455C11.9919 4.51262 12.0057 4.65887 11.988 4.80295C11.9703 4.94702 11.9216 5.08539 11.8452 5.20827C12.3102 6.05908 11.666 7.02599 10.6832 7.0405L8.26153 7.07542L10.2007 8.54439C10.9864 9.13941 10.947 10.3068 10.0771 10.7181C10.0677 10.863 10.0269 11.004 9.95766 11.1312C9.8884 11.2583 9.79234 11.3685 9.67631 11.4539C9.56028 11.5392 9.42712 11.5977 9.28628 11.6251C9.14544 11.6525 9.00036 11.6482 8.86134 11.6125C8.20688 12.3236 7.09819 12.0007 6.78103 11.0601L6.00024 8.74076Z" fill="#E7629A"/>
<path d="M6.90366 7.23149C7.40311 6.72583 7.40311 5.906 6.90366 5.40035C6.40422 4.89469 5.59445 4.89469 5.095 5.40035C4.59556 5.906 4.59556 6.72583 5.095 7.23149C5.59445 7.73714 6.40422 7.73714 6.90366 7.23149Z" fill="#FFDA44"/>
<path fill-rule="evenodd" clip-rule="evenodd" d="M5.99951 5.021C6.33462 5.02735 6.65388 5.16658 6.88864 5.40875C7.12341 5.65093 7.25494 5.97671 7.25494 6.31603C7.25494 6.65536 7.12341 6.98114 6.88864 7.22331C6.65388 7.46549 6.33462 7.60472 5.99951 7.61107V5.021Z" fill="#FFB655"/>
</svg>
